<svg id="Capa_1" data-name="Capa 1" xmlns="http://www.w3.org/2000/svg" viewBox="0 0 59.95 66.34"><title>S-logo</title><path d="M0,34C.12,28,.54,23.05,2.28,18.32c3.33-9,9.46-15.13,19-17.26,19-4.23,36.43,4.06,38.4,26.69.61,7,.32,14-2.11,20.63C52.76,61.65,41.71,66.61,29.1,66.32,19.1,66.09,10.55,62.68,5,53.79,1.1,47.45.15,40.31,0,34ZM36.65,10.6c-3.37,0-6.75-.11-10.12,0C19.1,11,13.2,16,12.05,22.87c-1.55,9.33,5.2,17,15.38,17.4,3.62.13,7.25,0,10.87.09a3,3,0,0,1,3.24,2.52,3.05,3.05,0,0,1-1.25,3.29c-2.39,1.76-8.55.95-10.35-1.48a6.69,6.69,0,0,0-5.4-2.91c-5.24-.11-10.49-.25-15.73-.08-3.19.11-4,2-2.32,4.87,1.53,2.58,3.25,5,4.82,7.58a8.5,8.5,0,0,0,7.48,4.22c6.75.09,13.5.27,20.23,0a14.94,14.94,0,0,0,14.33-14.9c-.08-7.85-6.32-14.2-14.59-14.66-3.36-.19-6.74-.06-10.11,0-2.54,0-5.14-.25-5.09-3.48.06-3,2.6-3.23,5-3.26,3.87,0,7.75.08,11.61-.15A9.76,9.76,0,0,0,49,13.64c.29-2.09-.06-3.28-2.65-3.1C43.16,10.76,39.9,10.59,36.65,10.6Z" transform="translate(0 0)"/><path d="M8.41,44.33H23.5c2.51,0,4.11,1.57,5.23,3.68a24.53,24.53,0,0,0,6.47,7.64c-6.63-.22-12.37.44-18.09-.49-2.59-.43-3.71-2.74-4.95-4.75C11,48.63,9.94,46.83,8.41,44.33Z" transform="translate(0 0)"/></svg>